<svg width="165" height="46" viewBox="0 0 165 46" fill="none" xmlns="http://www.w3.org/2000/svg">
<path d="M8.92969 27.5938C8.92969 27.2422 8.89062 26.9297 8.8125 26.6562C8.74219 26.375 8.60547 26.1211 8.40234 25.8945C8.19922 25.668 7.91016 25.4453 7.53516 25.2266C7.16797 25.0078 6.69141 24.7852 6.10547 24.5586C5.43359 24.3008 4.80469 24.0195 4.21875 23.7148C3.64062 23.4023 3.12891 23.0508 2.68359 22.6602C2.24609 22.2617 1.90234 21.7969 1.65234 21.2656C1.40234 20.7344 1.27734 20.1172 1.27734 19.4141C1.27734 18.7188 1.39844 18.0859 1.64062 17.5156C1.89062 16.9375 2.24219 16.4414 2.69531 16.0273C3.15625 15.6055 3.70312 15.2812 4.33594 15.0547C4.96875 14.8203 5.66797 14.7031 6.43359 14.7031C7.53516 14.7031 8.47656 14.9375 9.25781 15.4062C10.0469 15.875 10.6484 16.5039 11.0625 17.293C11.4844 18.082 11.6953 18.957 11.6953 19.918H8.85938C8.85938 19.3633 8.77344 18.8711 8.60156 18.4414C8.42969 18.0117 8.16406 17.6758 7.80469 17.4336C7.44531 17.1914 6.98047 17.0703 6.41016 17.0703C5.88672 17.0703 5.45312 17.1719 5.10938 17.375C4.77344 17.5781 4.52344 17.8555 4.35938 18.207C4.20312 18.5586 4.125 18.9609 4.125 19.4141C4.125 19.7266 4.19141 20.0117 4.32422 20.2695C4.45703 20.5195 4.64844 20.75 4.89844 20.9609C5.14844 21.1719 5.45312 21.3711 5.8125 21.5586C6.17188 21.7461 6.58594 21.9258 7.05469 22.0977C7.85156 22.3867 8.54688 22.707 9.14062 23.0586C9.73438 23.4102 10.2227 23.8047 10.6055 24.2422C10.9961 24.6719 11.2852 25.1602 11.4727 25.707C11.668 26.2539 11.7656 26.875 11.7656 27.5703C11.7656 28.2734 11.6445 28.9141 11.4023 29.4922C11.168 30.0625 10.8242 30.5508 10.3711 30.957C9.91797 31.3633 9.37109 31.6797 8.73047 31.9062C8.08984 32.125 7.37109 32.2344 6.57422 32.2344C5.83984 32.2344 5.13281 32.125 4.45312 31.9062C3.78125 31.6875 3.17969 31.3555 2.64844 30.9102C2.11719 30.457 1.69531 29.8906 1.38281 29.2109C1.07812 28.5312 0.925781 27.7344 0.925781 26.8203H3.77344C3.77344 27.3672 3.83984 27.8359 3.97266 28.2266C4.10547 28.6094 4.29688 28.9258 4.54688 29.1758C4.80469 29.418 5.10547 29.5977 5.44922 29.7148C5.80078 29.8242 6.19141 29.8789 6.62109 29.8789C7.15234 29.8789 7.58594 29.7852 7.92188 29.5977C8.26562 29.4023 8.51953 29.1328 8.68359 28.7891C8.84766 28.4453 8.92969 28.0469 8.92969 27.5938ZM25.8984 22.0742V24.9805C25.8984 26.1836 25.7578 27.2383 25.4766 28.1445C25.2031 29.0508 24.8047 29.8086 24.2812 30.418C23.7656 31.0195 23.1406 31.4727 22.4062 31.7773C21.6797 32.082 20.8672 32.2344 19.9688 32.2344C19.0781 32.2344 18.2656 32.082 17.5312 31.7773C16.8047 31.4727 16.1758 31.0195 15.6445 30.418C15.1211 29.8086 14.7148 29.0508 14.4258 28.1445C14.1445 27.2383 14.0039 26.1836 14.0039 24.9805V22.0742C14.0039 20.8555 14.1445 19.7891 14.4258 18.875C14.707 17.9531 15.1094 17.1836 15.6328 16.5664C16.1641 15.9492 16.793 15.4844 17.5195 15.1719C18.2539 14.8594 19.0625 14.7031 19.9453 14.7031C20.8438 14.7031 21.6562 14.8594 22.3828 15.1719C23.1172 15.4844 23.7461 15.9492 24.2695 16.5664C24.793 17.1836 25.1953 17.9531 25.4766 18.875C25.7578 19.7891 25.8984 20.8555 25.8984 22.0742ZM23.0742 24.9805V22.0508C23.0742 21.1836 23.0039 20.4414 22.8633 19.8242C22.7305 19.1992 22.5312 18.6914 22.2656 18.3008C22 17.9023 21.6719 17.6094 21.2812 17.4219C20.8984 17.2266 20.4531 17.1289 19.9453 17.1289C19.4531 17.1289 19.0117 17.2266 18.6211 17.4219C18.2383 17.6094 17.9102 17.9023 17.6367 18.3008C17.3711 18.6914 17.168 19.1992 17.0273 19.8242C16.8945 20.4414 16.8281 21.1836 16.8281 22.0508V24.9805C16.8281 25.832 16.8984 26.5664 17.0391 27.1836C17.1797 27.793 17.3828 28.293 17.6484 28.6836C17.9219 29.0664 18.2539 29.3516 18.6445 29.5391C19.0352 29.7266 19.4766 29.8203 19.9688 29.8203C20.4688 29.8203 20.9141 29.7266 21.3047 29.5391C21.6953 29.3516 22.0195 29.0664 22.2773 28.6836C22.543 28.293 22.7422 27.793 22.875 27.1836C23.0078 26.5664 23.0742 25.832 23.0742 24.9805ZM34.2656 24.3125H30.7852L30.7734 22.1328H33.8555C34.332 22.1328 34.7383 22.0391 35.0742 21.8516C35.4102 21.6641 35.6641 21.3906 35.8359 21.0312C36.0156 20.6719 36.1055 20.2383 36.1055 19.7305C36.1055 19.168 36.0234 18.7109 35.8594 18.3594C35.7031 18 35.4609 17.7383 35.1328 17.5742C34.8047 17.4102 34.3828 17.3281 33.8672 17.3281H31.6289V32H28.7812V14.9375H33.8672C34.6641 14.9375 35.375 15.0273 36 15.207C36.625 15.3867 37.1562 15.668 37.5938 16.0508C38.0391 16.4336 38.375 16.9141 38.6016 17.4922C38.8359 18.0703 38.9531 18.7578 38.9531 19.5547C38.9531 20.25 38.8047 20.8906 38.5078 21.4766C38.2109 22.0547 37.7695 22.5312 37.1836 22.9062C36.6055 23.2734 35.8867 23.4922 35.0273 23.5625L34.2656 24.3125ZM34.1602 32H29.8477L31.1602 29.6211H34.1602C34.668 29.6211 35.0859 29.5117 35.4141 29.293C35.7422 29.0742 35.9883 28.7695 36.1523 28.3789C36.3164 27.9883 36.3984 27.5312 36.3984 27.0078C36.3984 26.4609 36.3281 25.9844 36.1875 25.5781C36.0469 25.1719 35.8203 24.8594 35.5078 24.6406C35.1953 24.4219 34.7812 24.3125 34.2656 24.3125H31.3945L31.418 22.1328H35.0859L35.7422 22.9648C36.5625 22.9805 37.2305 23.1836 37.7461 23.5742C38.2617 23.957 38.6406 24.4531 38.8828 25.0625C39.125 25.6719 39.2461 26.3242 39.2461 27.0195C39.2461 28.1055 39.043 29.0195 38.6367 29.7617C38.2383 30.4961 37.6602 31.0547 36.9023 31.4375C36.1445 31.8125 35.2305 32 34.1602 32ZM42.1055 14.9375H47.2617C48.3867 14.9375 49.3398 15.1328 50.1211 15.5234C50.9023 15.9141 51.4961 16.4922 51.9023 17.2578C52.3164 18.0156 52.5234 18.957 52.5234 20.082C52.5234 20.9336 52.3945 21.6836 52.1367 22.332C51.8867 22.9805 51.5234 23.5273 51.0469 23.9727C50.5703 24.4102 49.9961 24.75 49.3242 24.9922L48.4922 25.4492H44.1328L44.1211 23.0586H47.1914C47.7461 23.0586 48.207 22.9375 48.5742 22.6953C48.9414 22.4531 49.2148 22.1172 49.3945 21.6875C49.582 21.2578 49.6758 20.7695 49.6758 20.2227C49.6758 19.6367 49.5938 19.1289 49.4297 18.6992C49.2656 18.2617 49.0078 17.9258 48.6562 17.6914C48.3047 17.4492 47.8398 17.3281 47.2617 17.3281H44.9531V32H42.1055V14.9375ZM50.0508 32L46.8047 24.3359L49.7695 24.3242L53.0977 31.8477V32H50.0508ZM64.6289 29.6211V32H57.2227V29.6211H64.6289ZM57.9727 14.9375V32H55.125V14.9375H57.9727ZM63.6328 22.0391V24.3828H57.2227V22.0391H63.6328ZM64.5586 14.9375V17.3281H57.2227V14.9375H64.5586ZM84.082 14.9375V32H81.293L75.2695 20.1875V32H72.5156V14.9375H75.2695L81.3398 26.832V14.9375H84.082ZM98.8828 22.0742V24.9805C98.8828 26.1836 98.7422 27.2383 98.4609 28.1445C98.1875 29.0508 97.7891 29.8086 97.2656 30.418C96.75 31.0195 96.125 31.4727 95.3906 31.7773C94.6641 32.082 93.8516 32.2344 92.9531 32.2344C92.0625 32.2344 91.25 32.082 90.5156 31.7773C89.7891 31.4727 89.1602 31.0195 88.6289 30.418C88.1055 29.8086 87.6992 29.0508 87.4102 28.1445C87.1289 27.2383 86.9883 26.1836 86.9883 24.9805V22.0742C86.9883 20.8555 87.1289 19.7891 87.4102 18.875C87.6914 17.9531 88.0938 17.1836 88.6172 16.5664C89.1484 15.9492 89.7773 15.4844 90.5039 15.1719C91.2383 14.8594 92.0469 14.7031 92.9297 14.7031C93.8281 14.7031 94.6406 14.8594 95.3672 15.1719C96.1016 15.4844 96.7305 15.9492 97.2539 16.5664C97.7773 17.1836 98.1797 17.9531 98.4609 18.875C98.7422 19.7891 98.8828 20.8555 98.8828 22.0742ZM96.0586 24.9805V22.0508C96.0586 21.1836 95.9883 20.4414 95.8477 19.8242C95.7148 19.1992 95.5156 18.6914 95.25 18.3008C94.9844 17.9023 94.6562 17.6094 94.2656 17.4219C93.8828 17.2266 93.4375 17.1289 92.9297 17.1289C92.4375 17.1289 91.9961 17.2266 91.6055 17.4219C91.2227 17.6094 90.8945 17.9023 90.6211 18.3008C90.3555 18.6914 90.1523 19.1992 90.0117 19.8242C89.8789 20.4414 89.8125 21.1836 89.8125 22.0508V24.9805C89.8125 25.832 89.8828 26.5664 90.0234 27.1836C90.1641 27.793 90.3672 28.293 90.6328 28.6836C90.9062 29.0664 91.2383 29.3516 91.6289 29.5391C92.0195 29.7266 92.4609 29.8203 92.9531 29.8203C93.4531 29.8203 93.8984 29.7266 94.2891 29.5391C94.6797 29.3516 95.0039 29.0664 95.2617 28.6836C95.5273 28.293 95.7266 27.793 95.8594 27.1836C95.9922 26.5664 96.0586 25.832 96.0586 24.9805ZM91.5234 13.8828L93.8203 10.3438H97.0195L93.8203 13.8828H91.5234ZM109.102 27.5938C109.102 27.2422 109.062 26.9297 108.984 26.6562C108.914 26.375 108.777 26.1211 108.574 25.8945C108.371 25.668 108.082 25.4453 107.707 25.2266C107.34 25.0078 106.863 24.7852 106.277 24.5586C105.605 24.3008 104.977 24.0195 104.391 23.7148C103.812 23.4023 103.301 23.0508 102.855 22.6602C102.418 22.2617 102.074 21.7969 101.824 21.2656C101.574 20.7344 101.449 20.1172 101.449 19.4141C101.449 18.7188 101.57 18.0859 101.812 17.5156C102.062 16.9375 102.414 16.4414 102.867 16.0273C103.328 15.6055 103.875 15.2812 104.508 15.0547C105.141 14.8203 105.84 14.7031 106.605 14.7031C107.707 14.7031 108.648 14.9375 109.43 15.4062C110.219 15.875 110.82 16.5039 111.234 17.293C111.656 18.082 111.867 18.957 111.867 19.918H109.031C109.031 19.3633 108.945 18.8711 108.773 18.4414C108.602 18.0117 108.336 17.6758 107.977 17.4336C107.617 17.1914 107.152 17.0703 106.582 17.0703C106.059 17.0703 105.625 17.1719 105.281 17.375C104.945 17.5781 104.695 17.8555 104.531 18.207C104.375 18.5586 104.297 18.9609 104.297 19.4141C104.297 19.7266 104.363 20.0117 104.496 20.2695C104.629 20.5195 104.82 20.75 105.07 20.9609C105.32 21.1719 105.625 21.3711 105.984 21.5586C106.344 21.7461 106.758 21.9258 107.227 22.0977C108.023 22.3867 108.719 22.707 109.312 23.0586C109.906 23.4102 110.395 23.8047 110.777 24.2422C111.168 24.6719 111.457 25.1602 111.645 25.707C111.84 26.2539 111.938 26.875 111.938 27.5703C111.938 28.2734 111.816 28.9141 111.574 29.4922C111.34 30.0625 110.996 30.5508 110.543 30.957C110.09 31.3633 109.543 31.6797 108.902 31.9062C108.262 32.125 107.543 32.2344 106.746 32.2344C106.012 32.2344 105.305 32.125 104.625 31.9062C103.953 31.6875 103.352 31.3555 102.82 30.9102C102.289 30.457 101.867 29.8906 101.555 29.2109C101.25 28.5312 101.098 27.7344 101.098 26.8203H103.945C103.945 27.3672 104.012 27.8359 104.145 28.2266C104.277 28.6094 104.469 28.9258 104.719 29.1758C104.977 29.418 105.277 29.5977 105.621 29.7148C105.973 29.8242 106.363 29.8789 106.793 29.8789C107.324 29.8789 107.758 29.7852 108.094 29.5977C108.438 29.4023 108.691 29.1328 108.855 28.7891C109.02 28.4453 109.102 28.0469 109.102 27.5938Z" fill="#25345F"/>
<path d="M140.5 30.6667V23M140.5 15.3333H140.52M160.917 23C160.917 33.5855 151.776 42.1667 140.5 42.1667C129.224 42.1667 120.083 33.5855 120.083 23C120.083 12.4146 129.224 3.83334 140.5 3.83334C151.776 3.83334 160.917 12.4146 160.917 23Z" stroke="#25345F" stroke-width="4" stroke-linecap="round" stroke-linejoin="round"/>
</svg>
